<svg xmlns="http://www.w3.org/2000/svg" width="22" height="22" viewBox="0 0 22 22">
  <defs><filter id="g" x="-30%" y="-30%" width="160%" height="160%"><feGaussianBlur stdDeviation="1" result="b"/><feMerge><feMergeNode in="b"/><feMergeNode in="SourceGraphic"/></feMerge></filter><linearGradient id="p" x1="0" y1="0" x2="0" y2="1"><stop stop-color="#6fa9e6"/><stop offset="1" stop-color="#1766b4"/></linearGradient></defs>
  <path d="M4.2 3.8c1-1 2.2-.6 2.8.2l2 2.7c.5.7.3 1.6-.3 2.2L7.3 10c1.1 2.1 2.7 3.7 4.8 4.8l1.2-1.4c.6-.7 1.5-.8 2.2-.3l2.7 2c.9.6 1.2 1.8.2 2.8l-1.2 1.2c-1.1 1.1-3.1.8-4.6.2-4.7-1.9-8.2-5.4-10.1-10.1-.6-1.5-.9-3.5.2-4.6z" fill="url(#p)" stroke="#fff" stroke-width="1.7" stroke-linejoin="round" filter="url(#g)"/>
</svg>
